<?xml version="1.0" encoding="utf-8"?>
<!-- Generator: Adobe Illustrator 27.3.1, SVG Export Plug-In . SVG Version: 6.00 Build 0)  -->
<svg version="1.1" id="Layer_1" xmlns="http://www.w3.org/2000/svg" xmlns:xlink="http://www.w3.org/1999/xlink" x="0px" y="0px"
	 viewBox="0 0 500 500" style="enable-background:new 0 0 500 500;" xml:space="preserve">
<style type="text/css">
	.st0{fill-rule:evenodd;clip-rule:evenodd;fill:#212121;}
	.st1{fill-rule:evenodd;clip-rule:evenodd;fill:#EC407A;}
	.st2{fill-rule:evenodd;clip-rule:evenodd;fill:#FFFFFF;}
	.st3{fill-rule:evenodd;clip-rule:evenodd;fill:#81D4FA;}
</style>
<path class="st0" d="M68.4,0.4h363.2c37.6,0,68,30.5,68,68v363.2c0,37.6-30.5,68-68,68H68.4c-37.6,0-68-30.5-68-68V68.4
	C0.4,30.8,30.8,0.4,68.4,0.4z"/>
<path class="st1" d="M322.2,202.9c21.9,15.6,48.6,24.8,77.6,24.8v-55.6c-5.5,0-10.9-0.6-16.3-1.7v43.8c-28.9,0-55.7-9.2-77.6-24.8
	v113.5c0,56.8-46.1,102.8-102.9,102.8c-21.2,0-40.9-6.4-57.3-17.4c18.7,19.1,44.7,30.9,73.5,30.9c56.8,0,102.9-46,102.9-102.8V202.9
	L322.2,202.9z M342.3,146.8c-11.2-12.2-18.5-28-20.1-45.4v-7.2h-15.4C310.7,116.4,323.9,135.4,342.3,146.8L342.3,146.8z
	 M181.8,344.8c-6.2-8.2-9.6-18.2-9.6-28.5c0-26,21.1-47,47.1-47c4.8,0,9.7,0.7,14.3,2.2v-56.9c-5.4-0.7-10.8-1.1-16.3-0.9v44.3
	c-4.6-1.5-9.4-2.2-14.3-2.2c-26,0-47.1,21.1-47.1,47C155.9,321.1,166.4,337,181.8,344.8z"/>
<path class="st2" d="M305.9,189.4c21.9,15.6,48.6,24.8,77.6,24.8v-43.8c-16.1-3.4-30.4-11.9-41.2-23.6
	c-18.4-11.5-31.6-30.4-35.5-52.5h-40.5v222.1c-0.1,25.9-21.1,46.9-47.1,46.9c-15.3,0-28.9-7.3-37.5-18.6
	c-15.4-7.7-25.9-23.6-25.9-42c0-26,21.1-47,47.1-47c5,0,9.8,0.8,14.3,2.2v-44.2c-55.8,1.2-100.7,46.7-100.7,102.8
	c0,28,11.2,53.4,29.3,71.9c16.4,11,36.1,17.4,57.3,17.4c56.8,0,102.9-46,102.9-102.8L305.9,189.4L305.9,189.4z"/>
<path class="st3" d="M383.5,170.4v-11.8c-14.6,0-28.8-4-41.2-11.8C353.3,158.8,367.6,167,383.5,170.4z M306.8,94.3
	c-0.4-2.1-0.7-4.2-0.8-6.4v-7.2h-56v222.2c-0.1,25.9-21.1,46.9-47.1,46.9c-7.6,0-14.8-1.8-21.2-5c8.6,11.3,22.2,18.6,37.5,18.6
	c25.9,0,47-21,47.1-46.9V94.3H306.8z M217.2,213.7v-12.6c-4.7-0.6-9.4-1-14.1-1c-56.8,0-102.9,46-102.9,102.8
	c0,35.6,18.1,67,45.6,85.4c-18.1-18.5-29.3-43.9-29.3-71.9C116.5,260.4,161.4,214.8,217.2,213.7z"/>
</svg>
